<svg xmlns="http://www.w3.org/2000/svg" xmlns:xlink="http://www.w3.org/1999/xlink" version="1.1" width="1000" height="1000" viewBox="0 0 1000 1000" xml:space="preserve">
<desc>Created with Fabric.js 3.5.0</desc>
<defs>
</defs>
<rect x="0" y="0" width="100%" height="100%" fill="#ffffff"/>
<g transform="matrix(1 0 0 1 500 412.4979)" style="" id="34142">
		
<path xml:space="preserve" font-family="Chicle" font-size="165" font-style="normal" font-weight="normal" style="stroke: none; stroke-width: 1; stroke-dasharray: none; stroke-linecap: butt; stroke-dashoffset: 0; stroke-linejoin: miter; stroke-miterlimit: 4; is-custom-font: none; font-file-url: none; fill: rgb(71,81,144); fill-rule: nonzero; opacity: 1; white-space: pre;" d="M-263.83-56.74L-263.83-56.74L-264.50-61.19Q-264.50-64.99-259.21-68.53Q-253.94-72.08-243.38-72.08L-243.38-72.08Q-235.62-72.08-235.62-67.63L-235.62-67.63Q-235.62-65.65-237.10-61.93Q-238.59-58.22-252.04-32.65Q-265.49-7.07-267.13-2.45L-267.13-2.45Q-269.94 5.47-270.44 13.55L-270.44 13.55L-270.60 16.36Q-269.94 39.95-269.53 41.60Q-269.12 43.25-269.12 44.57L-269.12 44.57Q-269.12 48.53-272.91 51.67L-272.91 51.67Q-280.83 57.77-294.36 57.77L-294.36 57.77Q-299.97 57.77-299.97 52.49L-299.97 52.49L-299.48 49.19Q-299.31 48.37-298.32 43.91Q-297.33 39.46-296.92 37.31Q-296.50 35.17-296.01 30.55L-296.01 30.55Q-294.69 20.65-294.69 12.23L-294.69 12.23Q-294.69-0.31-295.68-4.60L-295.68-4.60Q-300.96-21.76-305.58-34.13L-305.58-34.13L-307.23-38.26Q-310.04-46.51-315.81-50.96L-315.81-50.96Q-318.94-53.60-318.94-56.74L-318.94-56.74Q-318.94-62.68-310.28-66.64Q-301.62-70.60-295.02-70.60Q-288.42-70.60-287.10-65.15L-287.10-65.15Q-286.61-63.34-284.79-55.42L-284.79-55.42Q-280.67-36.28-277.04-27.70L-277.04-27.70Q-276.54-26.38-275.88-26.38Q-275.22-26.38-274.23-27.53L-274.23-27.53Q-271.10-32.32-267.46-41.97Q-263.83-51.62-263.83-56.74ZM-233.97 25.10L-233.97 25.10Q-233.97 32.03-229.02 32.03Q-224.07 32.03-221.02 26.92Q-217.97 21.80-217.97 17.84L-217.97 17.84Q-217.97 10.42-223.25 10.42L-223.25 10.42Q-228.03 10.42-231 15.20Q-233.97 19.99-233.97 25.10ZM-198.50-1.13L-198.50-1.13L-198.99 21.80Q-198.99 35.50-195.52 37.64L-195.52 37.64Q-193.38 39.29-193.38 41.93L-193.38 41.93Q-193.38 46.72-199.73 50.84Q-206.08 54.97-212.69 54.97L-212.69 54.97Q-215.98 54.97-217.63 53.57Q-219.28 52.16-219.28 50.51L-219.28 50.51Q-219.28 46.06-220.44 46.06L-220.44 46.06Q-220.60 46.06-222.50 47.96Q-224.40 49.85-228.11 51.75Q-231.82 53.65-237.52 53.65Q-243.21 53.65-247.58 50.84Q-251.95 48.04-253.60 43.58L-253.60 43.58Q-256.57 36.16-256.57 29.72Q-256.57 23.29-254.59 17.68Q-252.62 12.07-249.65 8.60Q-246.68 5.14-242.72 2.42Q-238.75-0.31-235.29-1.54Q-231.82-2.78-228.19-3.61L-228.19-3.61Q-223.08-4.60-221.10-4.60L-221.10-4.60L-219.45-6.74Q-219.62-12.35-227.62-12.35Q-235.62-12.35-240.73-9.22L-240.73-9.22Q-242.72-7.90-244.69-7.90L-244.69-7.90Q-248.66-7.90-248.66-13.84L-248.66-13.84Q-248.66-29.18-224.24-29.18L-224.24-29.18Q-205.43-29.18-200.64-16.64L-200.64-16.64Q-198.50-11.03-198.50-1.13ZM-161.70-30.83L-161.70-30.83Q-139.92-30.83-139.92-17.96L-139.92-17.96Q-139.92-14.33-142.31-11.86Q-144.70-9.38-147.76-9.38Q-150.81-9.38-153.62-11.03Q-156.42-12.68-159.88-12.68L-159.88-12.68Q-168.30-12.68-168.30-7.90L-168.30-7.90Q-168.30-5.75-165.66-4.27L-165.66-4.27Q-146.19 5.47-142.23 11.57L-142.23 11.57Q-137.44 18.67-137.44 28.57L-137.44 28.57Q-137.44 32.20-139.09 37.31Q-140.75 42.43-143.55 45.98Q-146.35 49.52-152.46 52.49Q-158.56 55.46-166.98 55.46L-166.98 55.46Q-172.92 55.46-179.69 53.48L-179.69 53.48Q-193.38 49.52-193.38 37.15L-193.38 37.15Q-193.38 31.37-190.08 27.17Q-186.78 22.96-181.83 22.96Q-176.88 22.96-174.73 25.93L-174.73 25.93Q-174.57 26.09-173.75 27.41Q-172.92 28.73-172.26 29.39L-172.26 29.39Q-170.12 31.54-166.65 31.54Q-163.19 31.54-161.20 29.81Q-159.22 28.07-159.22 25.10Q-159.22 22.13-163.84 19.00Q-168.47 15.86-173.99 13.55Q-179.52 11.24-184.14 6.21Q-188.76 1.18-188.76-5.59L-188.76-5.59Q-188.76-17.14-181.25-23.98Q-173.75-30.83-161.70-30.83ZM-109.23-24.23L-109.23-24.23L-109.06-19.94Q-108.73-18.79-108.07-18.79Q-107.41-18.79-106.75-19.45L-106.75-19.45Q-104.61-22.75-99.66-25.47Q-94.71-28.19-90.25-28.19L-90.25-28.19Q-83.49-28.19-79.94-22.91Q-76.39-17.63-75.41-10.87L-75.41-10.87Q-74.41 0.68-74.41 8.52Q-74.41 16.36-74.74 22.96L-74.74 22.96Q-74.74 34.67-69.46 37.97L-69.46 37.97Q-66.82 39.46-66.82 41.69Q-66.82 43.91-67.98 45.73L-67.98 45.73Q-70.62 49.69-75.82 52.00Q-81.01 54.31-84.81 54.47L-84.81 54.47L-88.60 54.80Q-93.55 54.64-95.20 52.00Q-96.85 49.36-96.85 43.75L-96.85 43.75L-95.37 15.37Q-95.20 13.22-95.20 9.76L-95.20 9.76Q-95.20-3.77-101.31-3.77L-101.31-3.77Q-105.27-3.77-107.50 0.85Q-109.72 5.47-109.97 11.16Q-110.22 16.85-110.22 23.62L-110.22 23.62L-109.23 44.08Q-109.23 49.52-113.02 52.16L-113.02 52.16Q-118.80 56.12-127.13 56.12Q-135.47 56.12-135.47 50.68L-135.47 50.68L-134.97 47.71Q-129.69 22.13-129.69-20.27L-129.69-20.27Q-129.53-26.21-129.53-33.39Q-129.53-40.57-129.77-43.12Q-130.02-45.68-131.34-47.74Q-132.66-49.81-135.13-51.46L-135.13-51.46Q-137.28-53.11-137.28-55.25L-137.28-55.25Q-137.28-60.86-128.04-65.81Q-118.80-70.76-113.35-70.76L-113.35-70.76Q-107.25-70.76-107.25-61.52L-107.25-61.52Q-107.25-54.76-108.24-42.38Q-109.23-30.01-109.23-24.23ZM-12.46-31.66Q-6.76-31.66-4.45-25.72Q-2.14-19.78-2.14-12.68Q-2.14-5.59-4.37 2.25Q-6.60 10.09-9.90 16.19L-9.90 16.19Q-16.50 28.40-21.78 35.17L-21.78 35.17L-24.09 37.97Q-37.45 55.46-44.88 55.46L-44.88 55.46Q-54.61 55.46-60.39 12.73L-60.39 12.73Q-61.54 4.15-63.61-1.54Q-65.67-7.24-67.15-8.56L-67.15-8.56L-68.64-9.88Q-71.44-12.02-71.44-14.66L-71.44-14.66Q-71.44-19.61-63.28-24.40Q-55.11-29.18-49.83-29.18Q-44.55-29.18-43.56-23.57L-43.56-23.57Q-42.07-17.63-40.42-1.13Q-38.77 15.37-35.14 21.80L-35.14 21.80Q-34.48 23.45-33.08 23.45Q-31.68 23.45-30.52 22.13L-30.52 22.13Q-22.60 13.22-22.60-0.64L-22.60-0.64Q-22.60-4.60-24.58-8.72Q-26.56-12.85-29.20-14.33L-29.20-14.33Q-31.68-15.98-31.68-18.13L-31.68-18.13Q-31.68-23.08-24.91-27.37Q-18.15-31.66-12.46-31.66ZM5.78 14.21L5.28-2.12Q5.28-4.76 4.04-7.07Q2.81-9.38 0.83-11.20Q-1.15-13.01-1.15-15.16L-1.15-15.16Q-1.15-20.77 7.43-25.14Q16.01-29.51 21.86-29.51Q27.72-29.51 27.89-23.57L27.89-23.57Q27.89-19.45 27.14-8.80Q26.40 1.84 26.40 10.91L26.40 10.91Q26.40 32.86 30.36 38.47L30.36 38.47Q32.67 39.79 32.67 42.59L32.67 42.59Q32.67 48.04 26.65 51.17Q20.63 54.31 13.04 54.31L13.04 54.31Q2.97 54.31 2.97 47.54L2.97 47.54Q2.97 47.21 3.47 43.75L3.47 43.75Q5.78 30.55 5.78 14.21L5.78 14.21ZM29.54-54.59L29.54-54.59Q29.54-48.49 23.68-44.77Q17.82-41.06 12.38-41.06Q6.93-41.06 3.88-43.12Q0.83-45.19 0.83-48.65L0.83-48.65Q0.83-54.92 6.77-58.80Q12.71-62.68 18.07-62.68Q23.43-62.68 26.48-60.53Q29.54-58.39 29.54-54.59Z"/><path xml:space="preserve" font-family="Chicle" font-size="165" font-style="normal" font-weight="normal" style="stroke: none; stroke-width: 1; stroke-dasharray: none; stroke-linecap: butt; stroke-dashoffset: 0; stroke-linejoin: miter; stroke-miterlimit: 4; is-custom-font: none; font-file-url: none; fill: rgb(118,131,216) white-space: pre;; fill-rule: nonzero; opacity: 1; white-space: pre;" d="M120.95-11.20Q125.24-5.75 128.21 2.17Q131.18 10.09 131.18 18.92Q131.18 27.74 128.95 34.34Q126.72 40.94 123.01 44.74Q119.30 48.53 115.58 51.01Q111.87 53.48 107.58 54.47L107.58 54.47Q101.15 55.96 97.84 55.96L97.84 55.96Q83.33 55.96 74.99 47.54Q66.66 39.13 66.66 25.60L66.66 25.60Q66.66 18.01 70.37 11.33Q74.09 4.64 79.86 4.64L79.86 4.64Q81.84 4.64 83.08 6.13Q84.31 7.61 84.65 11.24Q84.98 14.87 86.13 18.26Q87.29 21.64 88.61 23.21Q89.93 24.77 91.58 25.76L91.58 25.76Q93.89 26.92 95.54 26.92L95.54 26.92Q99.66 26.92 101.97 24.03Q104.28 21.14 104.28 16.36Q104.28 11.57 101.15 5.88Q98.01 0.19 93.64-5.01Q89.27-10.21 84.81-15.49L84.81-15.49Q74.09-28.19 74.09-39.58L74.09-39.58Q74.09-54.43 84.07-62.43Q94.05-70.43 109.56-70.43L109.56-70.43Q118.14-70.43 121.85-67.13Q125.56-63.83 125.56-55.50Q125.56-47.17 120.78-47.17L120.78-47.17Q119.13-47.17 116.41-48.40Q113.69-49.64 110.22-49.64Q106.76-49.64 104.45-46.84Q102.14-44.03 102.14-39.82Q102.14-35.62 105.11-30.83Q108.08-26.05 112.37-21.34Q116.66-16.64 120.95-11.20ZM167.64-30.50L167.64-30.50Q182.00-30.50 189.50-17.96Q197.01-5.42 197.01 12.73L197.01 12.73Q197.01 36.65 183.31 49.03L183.31 49.03Q175.72 55.79 166.49 55.79Q157.25 55.79 151.22 52.00Q145.20 48.20 142.06 41.93L142.06 41.93Q135.63 29.72 135.63 15.86L135.63 15.86Q135.63-0.31 143.06-14.50L143.06-14.50Q146.69-21.59 153.12-26.05Q159.56-30.50 167.64-30.50ZM177.21 4.64Q177.21-0.31 175.23-4.27Q173.25-8.23 168.71-8.23Q164.18-8.23 159.97-1.87Q155.76 4.48 155.76 13.55L155.76 13.55Q155.76 26.26 164.18 26.26L164.18 26.26Q168.80 26.26 173.00 20.48Q177.21 14.71 177.21 4.64L177.21 4.64ZM225.56 9.76L225.56 9.76L225.22 22.13Q225.22 27.08 225.72 35.50L225.72 35.50L226.22 43.91Q226.22 49.36 222.42 52.00L222.42 52.00Q216.31 56.29 206.75 56.29L206.75 56.29Q199.98 56.29 199.98 50.51L199.98 50.51L200.31 47.87Q204.44 28.57 204.52 15.20Q204.60 1.84 203.69-2.62Q202.78-7.07 199.98-10.12Q197.17-13.18 197.17-15.16L197.17-15.16Q197.17-20.60 205.75-25.55Q214.33-30.50 219.37-30.50Q224.40-30.50 225.06-25.06L225.06-25.06Q225.39-17.80 226.88-17.80L226.88-17.80Q227.37-17.80 228.03-18.29L228.03-18.29Q228.69-19.45 230.09-21.10Q231.50-22.75 236.20-25.47Q240.90-28.19 247.00-28.19Q253.11-28.19 257.07-23.24Q261.03-18.29 261.86-11.53L261.86-11.53Q262.19-8.72 262.19-2.29L262.19-2.29L261.52 22.13Q261.52 33.35 266.64 37.48L266.64 37.48Q269.61 38.96 269.61 41.19Q269.61 43.42 268.29 45.23L268.29 45.23Q262.02 54.14 247.83 54.14L247.83 54.14Q241.06 53.98 239.91 48.70L239.91 48.70Q239.41 46.39 239.41 41.52Q239.41 36.65 240.32 26.18Q241.23 15.70 241.23 10.75L241.23 10.75Q241.23-3.94 234.63-3.94L234.63-3.94Q230.34-3.94 227.95 0.68Q225.56 5.30 225.56 9.76ZM277.53 14.21L277.04-2.12Q277.04-4.76 275.80-7.07Q274.56-9.38 272.58-11.20Q270.60-13.01 270.60-15.16L270.60-15.16Q270.60-20.77 279.18-25.14Q287.76-29.51 293.62-29.51Q299.48-29.51 299.64-23.57L299.64-23.57Q299.64-19.45 298.90-8.80Q298.16 1.84 298.16 10.91L298.16 10.91Q298.16 32.86 302.12 38.47L302.12 38.47Q304.43 39.79 304.43 42.59L304.43 42.59Q304.43 48.04 298.40 51.17Q292.38 54.31 284.79 54.31L284.79 54.31Q274.73 54.31 274.73 47.54L274.73 47.54Q274.73 47.21 275.22 43.75L275.22 43.75Q277.53 30.55 277.53 14.21L277.53 14.21ZM301.29-54.59L301.29-54.59Q301.29-48.49 295.43-44.77Q289.57-41.06 284.13-41.06Q278.69-41.06 275.63-43.12Q272.58-45.19 272.58-48.65L272.58-48.65Q272.58-54.92 278.52-58.80Q284.46-62.68 289.82-62.68Q295.19-62.68 298.24-60.53Q301.29-58.39 301.29-54.59Z"/></g>
</svg>